<mxfile>
    <diagram id="OW8mK7VhW8-QntUJi0D_" name="Page-1">
        <mxGraphModel dx="432" dy="329" grid="1" gridSize="10" guides="1" tooltips="1" connect="1" arrows="1" fold="1" page="1" pageScale="1" pageWidth="827" pageHeight="1169" background="#FFFFFF" math="0" shadow="0">
            <root>
                <mxCell id="0"/>
                <mxCell id="1" parent="0"/>
                <mxCell id="12" value="" style="group;rotation=-15;" vertex="1" connectable="0" parent="1">
                    <mxGeometry x="343.75" y="229.38" width="126.25" height="150" as="geometry"/>
                </mxCell>
                <mxCell id="22" value="" style="verticalLabelPosition=bottom;verticalAlign=top;html=1;shape=mxgraph.basic.pie;startAngle=0.375;endAngle=0.7185835209054994;strokeWidth=3;fontSize=15;fontColor=#000000;fillColor=#FFFF00;strokeColor=none;" vertex="1" parent="12">
                    <mxGeometry x="-82.5" y="-47.5" width="197.5" height="197.5" as="geometry"/>
                </mxCell>
                <mxCell id="7" value="" style="rounded=0;whiteSpace=wrap;html=1;strokeColor=#000000;fillColor=#0000CC;rotation=-105;" vertex="1" parent="12">
                    <mxGeometry x="-21" y="13" width="61.17647058823529" height="26.686046511627907" as="geometry"/>
                </mxCell>
                <mxCell id="9" value="N" style="text;html=1;strokeColor=none;fillColor=none;align=center;verticalAlign=middle;whiteSpace=wrap;rounded=0;fontSize=20;rotation=-15;" vertex="1" parent="12">
                    <mxGeometry x="-7" y="13" width="30.588235294117645" height="12.558139534883722" as="geometry"/>
                </mxCell>
                <mxCell id="10" value="" style="rounded=0;whiteSpace=wrap;html=1;strokeColor=#000000;rotation=-105;fillColor=#FF0000;" vertex="1" parent="12">
                    <mxGeometry x="-8" y="62" width="61.17647058823529" height="26.686046511627907" as="geometry"/>
                </mxCell>
                <mxCell id="11" value="S" style="text;html=1;strokeColor=none;fillColor=none;align=center;verticalAlign=middle;whiteSpace=wrap;rounded=0;fontSize=20;rotation=-15;" vertex="1" parent="12">
                    <mxGeometry x="9" y="76" width="30.588235294117645" height="12.558139534883722" as="geometry"/>
                </mxCell>
                <mxCell id="23" value="Operating zone" style="text;html=1;strokeColor=none;fillColor=none;align=center;verticalAlign=middle;whiteSpace=wrap;rounded=0;fontSize=15;fontColor=#000000;" vertex="1" parent="12">
                    <mxGeometry x="-16.409999999999968" y="130" width="40" height="20" as="geometry"/>
                </mxCell>
                <mxCell id="27" value="40865" style="text;html=1;strokeColor=none;fillColor=none;align=center;verticalAlign=middle;whiteSpace=wrap;rounded=0;fontSize=15;fontColor=#000000;" vertex="1" parent="12">
                    <mxGeometry x="86.25" y="110" width="40" height="20" as="geometry"/>
                </mxCell>
                <mxCell id="15" value="" style="endArrow=classic;html=1;strokeColor=#000000;fontSize=20;exitX=0.917;exitY=0.51;exitDx=0;exitDy=0;exitPerimeter=0;" edge="1" parent="1" source="10">
                    <mxGeometry width="50" height="50" relative="1" as="geometry">
                        <mxPoint x="350" y="290" as="sourcePoint"/>
                        <mxPoint x="360" y="120" as="targetPoint"/>
                    </mxGeometry>
                </mxCell>
                <mxCell id="14" value="" style="endArrow=classic;html=1;strokeColor=#000000;fontSize=20;" edge="1" parent="1">
                    <mxGeometry width="50" height="50" relative="1" as="geometry">
                        <mxPoint x="360" y="280" as="sourcePoint"/>
                        <mxPoint x="320" y="130" as="targetPoint"/>
                    </mxGeometry>
                </mxCell>
                <mxCell id="2" value="" style="ellipse;whiteSpace=wrap;html=1;aspect=fixed;fillColor=none;strokeColor=#000000;perimeterSpacing=0;" vertex="1" parent="1">
                    <mxGeometry x="290" y="210" width="140" height="140" as="geometry"/>
                </mxCell>
                <mxCell id="16" value="" style="endArrow=classic;html=1;strokeColor=#000000;fontSize=20;" edge="1" parent="1">
                    <mxGeometry width="50" height="50" relative="1" as="geometry">
                        <mxPoint x="360" y="160" as="sourcePoint"/>
                        <mxPoint x="330" y="170" as="targetPoint"/>
                    </mxGeometry>
                </mxCell>
                <mxCell id="17" value="Alpha" style="text;html=1;strokeColor=none;fillColor=none;align=center;verticalAlign=middle;whiteSpace=wrap;rounded=0;fontSize=15;fontColor=#000000;" vertex="1" parent="1">
                    <mxGeometry x="320" y="140" width="40" height="20" as="geometry"/>
                </mxCell>
                <mxCell id="24" value="0" style="text;html=1;strokeColor=none;fillColor=none;align=center;verticalAlign=middle;whiteSpace=wrap;rounded=0;fontSize=15;fontColor=#000000;" vertex="1" parent="1">
                    <mxGeometry x="330" y="110" width="40" height="20" as="geometry"/>
                </mxCell>
                <mxCell id="25" value="6125" style="text;html=1;strokeColor=none;fillColor=none;align=center;verticalAlign=middle;whiteSpace=wrap;rounded=0;fontSize=15;fontColor=#000000;" vertex="1" parent="1">
                    <mxGeometry x="280" y="120" width="40" height="20" as="geometry"/>
                </mxCell>
                <mxCell id="26" value="18023" style="text;html=1;strokeColor=none;fillColor=none;align=center;verticalAlign=middle;whiteSpace=wrap;rounded=0;fontSize=15;fontColor=#000000;" vertex="1" parent="1">
                    <mxGeometry x="220" y="294.38" width="40" height="20" as="geometry"/>
                </mxCell>
                <mxCell id="28" value="65535" style="text;html=1;strokeColor=none;fillColor=none;align=center;verticalAlign=middle;whiteSpace=wrap;rounded=0;fontSize=15;fontColor=#000000;" vertex="1" parent="1">
                    <mxGeometry x="370" y="110" width="40" height="20" as="geometry"/>
                </mxCell>
            </root>
        </mxGraphModel>
    </diagram>
</mxfile>